:SAMPLES-PER-SECOND 30
:FULLY-SPECIFIED
:DEGREES
306
root  -4.36646 31.3319 -9.72433 19.3167 -1.10049 -0.383354
RightUpLeg  -56.1876 8.84579 -4.75588
RightLeg  51.6222 2.02509 2.19136
RightFoot  -5.36727 -0.0283409 -0.227113
RightToes  -50.7479 -0.309518 -0.367452
Spine  14.4655 -0.19944 4.10865
Spine1  27.3871 2.54671 -1.21247
HEad  9.4672 22.0975 -11.4377
LeftShoulder1  0 -2.42657e-020 -4.95415e-022
LeftArm  -21.0463 -2.43341 -81.7408
LeftForeArm  -169.429 -36.5942 -7.04283
LeftHand  11.9827 -24.7524 -51.505
RightShoulder  0 2.42657e-020 1.07489e-018
RightArm  -37.7074 33.5428 56.4655
RightForeArm  59.9374 62.5161 19.8661
RightHand  -3.3992 27.3917 -13.5171
LeftUpLeg  -37.3825 9.15587 -10.7755
LeftLeg  52.9688 -0.980827 -1.14781
LeftFoot  -13.5815 0.0659401 0.553736
LeftToes  -15.5205 1.18758e-006 1.19596e-007
307
root  -3.60279 31.0163 -9.16942 19.0927 -1.61215 1.17675
RightUpLeg  -59.4919 11.7551 -7.89865
RightLeg  50.852 -1.23641 -1.38215
RightFoot  -0.677797 -0.00153445 0.118253
RightToes  -46.5035 -0.272407 -0.348836
Spine  15.5895 1.08506 4.05818
Spine1  29.0682 4.96455 -1.04911
HEad  7.78823 18.6095 -11.3515
LeftShoulder1  0 -2.42657e-020 -4.95415e-022
LeftArm  -20.1509 -6.06761 -83.8617
LeftForeArm  -168.919 -35.888 -6.85311
LeftHand  11.8222 -24.2679 -51.8092
RightShoulder  0 2.42657e-020 1.07489e-018
RightArm  -33.9835 35.4202 54.4449
RightForeArm  61.6765 58.3228 16.6149
RightHand  -4.69439 27.3674 -18.7466
LeftUpLeg  -41.725 10.763 -11.8247
LeftLeg  63.2233 -5.35854 -9.03516
LeftFoot  -6.50093 0.0969049 1.70617
LeftToes  -23.0259 1.18758e-006 1.19596e-007
308
root  -2.84262 30.2515 -8.53229 18.7 -0.417908 3.35859
RightUpLeg  -63.0056 13.7144 -13.1125
RightLeg  53.2802 0.00537885 -0.0510524
RightFoot  8.48254 0.00736064 0.278272
RightToes  -41.5788 -0.231217 -0.323866
Spine  16.6705 2.22429 4.43578
Spine1  30.7287 7.38878 -0.90603
HEad  7.25077 14.2615 -10.7507
LeftShoulder1  0 -2.42657e-020 -4.95415e-022
LeftArm  -19.1684 -8.93689 -86.6516
LeftForeArm  -169.244 -36.4553 -7.00515
LeftHand  11.872 -24.3542 -51.8349
RightShoulder  0 2.42657e-020 1.07489e-018
RightArm  -31.4826 36.2035 51.9033
RightForeArm  63.2129 50.2601 12.2127
RightHand  -5.72691 27.6263 -22.6331
LeftUpLeg  -46.3451 8.86371 -10.7624
LeftLeg  74.1145 -7.86483 -21.0735
LeftFoot  1.13279 -0.00331678 0.335502
LeftToes  -48.795 1.18758e-006 1.19596e-007
309
root  -2.07014 28.9677 -7.86224 18.3214 2.41364 5.92316
RightUpLeg  -65.4003 13.1889 -18.5664
RightLeg  60.7208 0.147164 0.134883
RightFoot  0.340681 -0.000407598 0.513595
RightToes  -45.275 -0.261933 -0.34294
Spine  17.6004 3.20035 5.43619
Spine1  32.1671 9.6273 0.0369087
HEad  7.30917 9.4283 -9.55735
LeftShoulder1  0 -2.42657e-020 -4.95415e-022
LeftArm  -17.001 -11.3793 -90.0752
LeftForeArm  -169.286 -37.1663 -7.19864
LeftHand  11.7693 -24.4781 -51.2108
RightShoulder  0 2.42657e-020 1.07489e-018
RightArm  -31.2085 36.024 47.8321
RightForeArm  63.8762 40.0937 8.48264
RightHand  -6.67193 28.4896 -25.4975
LeftUpLeg  -51.1346 3.82855 -8.16218
LeftLeg  82.3647 -4.03014 -19.3825
LeftFoot  -2.20652 0.0290084 1.50621
LeftToes  -41.8407 1.18758e-006 1.19596e-007
310
root  -1.31427 27.3874 -7.23164 17.4386 5.02075 8.56798
RightUpLeg  -66.64 9.10135 -20.8014
RightLeg  70.1129 0.552382 1.09521
RightFoot  -8.81734 0.0188042 0.621498
RightToes  -44.8457 -0.258304 -0.340827
Spine  18.9217 4.12958 6.45157
Spine1  34.0858 11.9055 1.32868
HEad  7.35267 3.0263 -7.05747
LeftShoulder1  0 -2.42657e-020 -4.95415e-022
LeftArm  -13.0865 -13.9357 -92.3373
LeftForeArm  -169.347 -38.379 -7.53731
LeftHand  11.6674 -24.3546 -51.054
RightShoulder  0 2.42657e-020 1.07489e-018
RightArm  -35.868 37.3091 43.0854
RightForeArm  62.9647 26.6046 5.00797
RightHand  -5.59479 28.8706 -21.1305
LeftUpLeg  -55.7087 -0.360025 -4.0148
LeftLeg  88.1783 -0.700745 -7.30489
LeftFoot  -8.00248 0.09268 1.3249
LeftToes  -31.55 1.18758e-006 1.19596e-007
311
root  -0.604245 25.9602 -6.63086 16.7201 4.96191 9.70532
RightUpLeg  -69.7487 7.55613 -22.799
RightLeg  79.1022 0.786764 2.67584
RightFoot  -12.9267 0.018327 0.539352
RightToes  -46.3214 -0.270847 -0.347976
Spine  20.549 5.38689 6.9464
Spine1  36.526 14.3997 3.26203
HEad  5.60967 -3.09359 -4.41419
LeftShoulder1  0 -2.42657e-020 -4.95415e-022
LeftArm  -9.18127 -17.3877 -93.2129
LeftForeArm  -169.231 -39.566 -7.88003
LeftHand  11.4676 -24.1938 -50.587
RightShoulder  0 2.42657e-020 1.07489e-018
RightArm  -45.9462 38.3458 36.5108
RightForeArm  56.4588 17.6537 3.17515
RightHand  -2.39734 29.0874 -8.85393
LeftUpLeg  -59.5204 -2.30348 3.00556
LeftLeg  89.629 -0.120782 -1.80118
LeftFoot  -12.083 -0.00718122 -0.0678611
LeftToes  -22.8087 1.18758e-006 1.19596e-007
312
root  0.0961563 24.7347 -6.0674 16.1829 5.84119 10.1979
RightUpLeg  -71.0893 5.60307 -24.1522
RightLeg  85.5258 0.675855 3.99272
RightFoot  -16.7698 -0.000677523 0.372968
RightToes  -48.3944 -0.28877 -0.357469
Spine  21.3081 5.71181 7.15406
Spine1  37.4859 14.8474 5.10971
HEad  2.87543 -7.48854 -0.775615
LeftShoulder1  0 -2.42657e-020 -4.95415e-022
LeftArm  -6.99133 -20.2938 -92.8121
LeftForeArm  -168.082 -40.569 -8.17807
LeftHand  11.3087 -23.9244 -50.4767
RightShoulder  0 2.42657e-020 1.07489e-018
RightArm  -48.6832 36.2417 31.5819
RightForeArm  49.926 16.0597 2.88099
RightHand  -2.25363 29.7384 -8.10535
LeftUpLeg  -62.1649 -4.97188 11.9766
LeftLeg  86.0586 -0.231344 -1.77941
LeftFoot  -13.0206 -0.0909846 -0.797286
LeftToes  -23.121 1.18758e-006 1.19596e-007
313
root  0.820783 23.8111 -5.59023 16.1528 6.8277 9.91575
RightUpLeg  -71.5581 4.67062 -25.4718
RightLeg  89.5462 0.417088 4.22409
RightFoot  -20.0184 0.0183468 0.481518
RightToes  -49.8215 -0.301302 -0.363624
Spine  21.5199 5.58817 7.41081
Spine1  37.831 15.1845 5.4885
HEad  -0.195025 -8.65923 1.58136
LeftShoulder1  0 -2.42657e-020 -4.95415e-022
LeftArm  -7.4839 -21.3863 -91.8509
LeftForeArm  -167.871 -43.1606 -8.99521
LeftHand  11.2543 -23.987 -50.1458
RightShoulder  0 2.42657e-020 1.07489e-018
RightArm  -46.753 35.4968 26.761
RightForeArm  52.3521 17.6409 3.18075
RightHand  -1.97201 29.9829 -6.98601
LeftUpLeg  -63.4021 -7.55639 21.6128
LeftLeg  78.4696 0.325581 1.17173
LeftFoot  -13.7489 -0.234315 -1.94337
LeftToes  -19.7048 1.18758e-006 1.19596e-007
314
root  1.72638 23.146 -5.15946 15.8853 7.50549 9.14774
RightUpLeg  -71.0133 4.14164 -26.6843
RightLeg  91.835 0.251491 4.19012
RightFoot  -22.2222 0.0559889 0.662655
RightToes  -51.7115 -0.318127 -0.371292
Spine  21.7138 5.15506 7.72048
Spine1  38.2134 15.3736 4.95438
HEad  -0.982806 -8.40383 3.91011
LeftShoulder1  0 -2.42657e-020 -4.95415e-022
LeftArm  -7.93463 -22.2338 -90.3286
LeftForeArm  -170.184 -45.7001 -9.87059
LeftHand  11.3484 -24.0793 -50.3397
RightShoulder  0 2.42657e-020 1.07489e-018
RightArm  -48.6358 36.1159 22.026
RightForeArm  44.2305 19.0496 3.46984
RightHand  0.260278 29.9215 1.3443
LeftUpLeg  -63.0236 -11.9872 31.5147
LeftLeg  69.2765 1.45748 3.1932
LeftFoot  -15.0267 -0.362676 -2.74934
LeftToes  -11.962 1.18758e-006 1.19596e-007
315
root  2.90002 22.6759 -4.68462 15.182 7.67194 8.42472
RightUpLeg  -69.1419 3.68171 -28.3953
RightLeg  92.5947 0.211672 4.93011
RightFoot  -24.0081 0.0179133 0.461808
RightToes  -54.1057 -0.33979 -0.380201
Spine  21.5689 4.57459 7.90576
Spine1  37.6689 14.5365 5.23307
HEad  1.36193 -9.00416 6.48053
LeftShoulder1  0 -2.42657e-020 -4.95415e-022
LeftArm  -6.58274 -23.3564 -89.615
LeftForeArm  -169.623 -45.8279 -9.91596
LeftHand  11.2681 -23.9471 -50.2749
RightShoulder  0 2.42657e-020 1.07489e-018
RightArm  -48.6085 35.9102 16.8965
RightForeArm  32.5297 19.1971 3.51165
RightHand  3.84887 28.6621 15.3585
LeftUpLeg  -62.508 -19.6086 41.2572
LeftLeg  61.7195 -2.68198 -4.29995
LeftFoot  -12.99 -0.077851 -0.683819
LeftToes  -19.8916 1.18758e-006 1.19596e-007
316
root  4.1913 22.4595 -4.25594 14.2955 6.72925 7.03534
RightUpLeg  -66.8609 4.15068 -29.6729
RightLeg  91.3549 0.341895 5.56358
RightFoot  -24.9002 -0.0751839 0.0370139
RightToes  -56.6359 -0.363066 -0.388625
Spine  21.063 4.20523 7.65723
Spine1  36.3731 13.1414 5.99326
HEad  3.52873 -10.0587 9.62391
LeftShoulder1  0 -2.42657e-020 -4.95415e-022
LeftArm  -4.0672 -24.1279 -88.9974
LeftForeArm  -170.4 -45.7922 -9.90403
LeftHand  11.351 -23.9916 -50.515
RightShoulder  0 2.42657e-020 1.07489e-018
RightArm  -42.9586 32.9808 12.9233
RightForeArm  12.5727 22.3706 4.15496
RightHand  6.17177 24.363 28.4212
LeftUpLeg  -59.8958 -22.0865 44.8509
LeftLeg  57.7211 -7.01368 -9.56327
LeftFoot  -15.751 0.209736 1.51615
LeftToes  -55.1486 1.18758e-006 1.19596e-007
317
root  5.68225 22.5495 -4.01619 13.1332 6.00891 5.87655
RightUpLeg  -63.5074 5.48509 -31.5648
RightLeg  88.1502 0.620906 5.2797
RightFoot  -24.2273 -0.0923503 -0.052727
RightToes  -59.0087 -0.385212 -0.395583
Spine  20.4128 3.23647 7.10475
Spine1  34.8309 10.2264 6.41539
HEad  5.05805 -10.6127 12.5417
LeftShoulder1  0 -2.42657e-020 -4.95415e-022
LeftArm  -2.48987 -24.5531 -88.2407
LeftForeArm  -169.165 -46.1892 -10.0468
LeftHand  11.3011 -24.1701 -49.9862
RightShoulder  0 2.42657e-020 1.07489e-018
RightArm  -32.812 29.4521 10.9157
RightForeArm  1.4097 26.6846 5.06724
RightHand  6.68203 22.1037 33.6601
LeftUpLeg  -56.4917 -16.7605 40.228
LeftLeg  58.1302 -9.98254 -13.6439
LeftFoot  -20.6946 0.782829 4.28556
LeftToes  -57.9754 1.18758e-006 1.19596e-007
318
root  7.71346 22.9584 -3.90299 11.9584 5.9176 6.66098
RightUpLeg  -58.4357 6.47518 -36.1356
RightLeg  82.8161 1.0961 5.18917
RightFoot  -21.9249 -0.0919029 -0.0969128
RightToes  -62.0627 -0.414107 -0.40318
Spine  19.4244 1.20642 6.11657
Spine1  32.8805 5.17996 6.26584
HEad  6.79344 -10.9588 14.3432
LeftShoulder1  0 -2.42657e-020 -4.95415e-022
LeftArm  -1.46908 -24.2049 -87.5682
LeftForeArm  -166.04 -46.6571 -10.2163
LeftHand  11.1079 -23.8486 -49.8309
RightShoulder  0 2.42657e-020 1.07489e-018
RightArm  -25.5814 25.8666 10.5769
RightForeArm  -5.76328 30.7764 5.9996
RightHand  6.8243 20.3577 37.1211
LeftUpLeg  -57.2342 -15.1365 34.4021
LeftLeg  62.6397 -11.0579 -17.6869
LeftFoot  -20.7412 1.04418 5.70122
LeftToes  -59.9758 1.18758e-006 1.19596e-007
319
root  10.0364 23.664 -3.79771 10.73 3.9906 6.73622
RightUpLeg  -53.1695 9.21638 -40.1416
RightLeg  74.0923 1.66608 4.44398
RightFoot  -17.9066 -0.0545522 0.0312956
RightToes  -64.2405 -0.434938 -0.407651
Spine  18.4722 -0.525915 5.29056
Spine1  31.2143 0.319138 7.00232
HEad  8.10915 -11.6643 15.4925
LeftShoulder1  0 -2.42657e-020 -4.95415e-022
LeftArm  -0.575605 -23.6001 -87.641
LeftForeArm  -165.075 -46.8048 -10.2706
LeftHand  11.1056 -24.0498 -49.4461
RightShoulder  0 2.42657e-020 1.07489e-018
RightArm  -21.0483 20.983 11.8185
RightForeArm  -14.1002 33.9113 6.76153
RightHand  6.67147 18.8587 39.06
LeftUpLeg  -57.5955 -14.9693 28.536
LeftLeg  67.8302 -9.34003 -18.5317
LeftFoot  -20.7212 1.02481 5.60113
LeftToes  -56.3198 1.18758e-006 1.19596e-007
